<svg xmlns="http://www.w3.org/2000/svg" width="27" height="32" viewBox="0 0 27 32">
    <g fill="none" fill-rule="evenodd">
        <g fill="#FFF" fill-rule="nonzero">
            <g>
                <g>
                    <g>
                        <path d="M12.074 11.27c0-2.05-1.666-3.716-3.715-3.716-2.048 0-3.715 1.667-3.715 3.715 0 2.049 1.667 3.716 3.715 3.716 2.049 0 3.715-1.667 3.715-3.716zM8.36 13.126c-1.024 0-1.857-.833-1.857-1.858 0-1.024.833-1.857 1.857-1.857s1.858.833 1.858 1.857c0 1.025-.834 1.858-1.858 1.858z" transform="translate(-403 -243) translate(292 226) translate(97 17) translate(14)"/>
                        <path d="M8.36 14.985c-2.562 0-4.645 2.083-4.645 4.644v4.644h9.288v-4.644c0-2.561-2.083-4.644-4.644-4.644zm2.786 7.43H5.573v-2.786c0-1.211.776-2.244 1.857-2.627v3.555h1.858v-3.555c1.081.383 1.858 1.416 1.858 2.627v2.786z" transform="translate(-403 -243) translate(292 226) translate(97 17) translate(14)"/>
                        <path d="M21.747 27.988h4.26V0H1.856v3.715H0v27.988h18.032l3.715-3.715zM3.715 1.858H24.15V26.13H22.29V3.715H3.715V1.858zM1.858 5.573h18.576v18.7H14.86v5.572H1.858V5.573zm14.86 24.272V26.13h3.716v.544l-3.172 3.171h-.544z" transform="translate(-403 -243) translate(292 226) translate(97 17) translate(14)"/>
                        <path d="M14.861 11.269L18.576 11.269 18.576 13.127 14.861 13.127zM14.861 14.985L18.576 14.985 18.576 16.842 14.861 16.842zM14.861 18.7L18.576 18.7 18.576 20.557 14.861 20.557z" transform="translate(-403 -243) translate(292 226) translate(97 17) translate(14)"/>
                    </g>
                </g>
            </g>
        </g>
    </g>
</svg>
