<svg xmlns="http://www.w3.org/2000/svg" width="31" height="31" viewBox="0 0 31 31">
    <g fill="none" fill-rule="evenodd">
        <g fill="#FFF" fill-rule="nonzero">
            <g>
                <g>
                    <g>
                        <path d="M15.36 8.017c-4.05 0-7.343 3.294-7.343 7.343 0 4.05 3.294 7.343 7.343 7.343 4.05 0 7.343-3.294 7.343-7.343 0-4.05-3.294-7.343-7.343-7.343zm0 12.85c-3.037 0-5.508-2.47-5.508-5.507 0-3.037 2.471-5.508 5.508-5.508s5.508 2.471 5.508 5.508-2.471 5.508-5.508 5.508z" transform="translate(-529 -243) translate(292 226) translate(206 17) translate(31)"/>
                        <path d="M29.997 11.862l-2.36-.513c-.206-.629-.46-1.242-.76-1.832l1.306-2.034c.234-.363.182-.84-.123-1.145L24.382 2.66c-.305-.305-.782-.357-1.145-.123l-2.034 1.307c-.59-.3-1.203-.555-1.832-.76L18.858.723C18.766.3 18.393 0 17.96 0h-5.202c-.432 0-.805.3-.897.723l-.513 2.36c-.629.206-1.242.46-1.832.76L7.483 2.538c-.363-.234-.84-.182-1.145.123L2.66 6.338c-.305.305-.357.782-.123 1.145l1.307 2.034c-.3.59-.555 1.203-.76 1.832l-2.361.513C.3 11.954 0 12.327 0 12.76v5.202c0 .432.3.805.723.897l2.36.513c.206.629.46 1.242.76 1.832l-1.306 2.034c-.234.363-.182.84.123 1.145l3.678 3.678c.305.305.782.357 1.145.123l2.034-1.307c.59.3 1.203.555 1.832.76l.513 2.361c.092.422.465.723.897.723h5.202c.432 0 .805-.3.897-.723l.513-2.36c.629-.206 1.242-.46 1.832-.76l2.034 1.306c.363.234.84.183 1.145-.123l3.678-3.678c.305-.305.357-.782.123-1.145l-1.307-2.034c.3-.59.555-1.203.76-1.832l2.361-.513c.422-.092.723-.465.723-.897v-5.202c0-.432-.3-.805-.723-.897zm-1.113 5.359l-2.165.47c-.332.073-.598.323-.69.651-.237.853-.58 1.679-1.016 2.453-.167.296-.157.66.027.947l1.199 1.865-2.632 2.632-1.865-1.199c-.286-.184-.65-.194-.947-.027-.774.437-1.6.779-2.453 1.017-.328.091-.578.357-.65.69l-.471 2.164h-3.722l-.47-2.165c-.073-.332-.323-.598-.651-.69-.853-.237-1.679-.58-2.453-1.016-.296-.167-.66-.157-.947.027L7.113 26.24l-2.632-2.632 1.199-1.865c.184-.286.195-.65.027-.947-.437-.774-.779-1.6-1.017-2.453-.091-.328-.356-.578-.689-.65l-2.165-.471v-3.722L4 13.03c.332-.073.598-.323.69-.651.237-.853.58-1.679 1.016-2.453.167-.296.157-.66-.027-.947L4.48 7.113l2.632-2.632L8.978 5.68c.286.184.65.194.947.027.774-.437 1.6-.779 2.453-1.017.328-.091.578-.357.65-.69l.471-2.164h3.722L17.69 4c.073.332.323.598.651.69.853.237 1.679.58 2.453 1.016.296.167.66.157.947-.027l1.865-1.199 2.632 2.632-1.199 1.865c-.184.286-.195.65-.027.947.437.774.779 1.6 1.017 2.453.091.328.356.578.689.65l2.165.471v3.722z" transform="translate(-529 -243) translate(292 226) translate(206 17) translate(31)"/>
                    </g>
                </g>
            </g>
        </g>
    </g>
</svg>
