<svg xmlns="http://www.w3.org/2000/svg" width="31" height="31" viewBox="0 0 31 31">
    <g fill="none" fill-rule="evenodd">
        <g fill="#FFF" fill-rule="nonzero">
            <g>
                <g>
                    <g>
                        <path d="M23.26 27.841c-.166-.286-.533-.384-.82-.218l-.023.014c-.287.166-.384.533-.218.82.111.191.312.299.52.299.101 0 .205-.027.3-.082l.023-.013c.287-.166.384-.533.218-.82z" transform="translate(-665 -243) translate(292 226) translate(353 17) translate(20)"/>
                        <path d="M28.662 7.685C26.61 4.133 23.299 1.592 19.337.53c-3.962-1.062-8.1-.517-11.652 1.534C4.132 4.114 1.59 7.426.53 11.388c-1.062 3.962-.517 8.1 1.534 11.653 1.84 3.186 4.764 5.608 8.233 6.819 1.645.574 3.362.86 5.076.86 1.864 0 3.724-.339 5.483-1.015.31-.119.464-.466.345-.775-.12-.31-.466-.464-.776-.345-4.68 1.8-9.748.982-13.535-1.86l.538-2.806.259-.084c.979-.318 1.516-1.373 1.198-2.352l-.19-.585c-.044-.135-.043-.278 0-.413.168-.509.108-1.065-.163-1.526-.27-.462-.727-.785-1.252-.888l-1.354-.265-2.613-1.986c-.156-.12-.361-.154-.548-.093l-1.53.497c-.032-.548-.033-1.095-.002-1.639.06.057.1.095.124.12.03.05.067.095.11.135.125.114.238.165.476.165.218 0 .541-.043 1.075-.122.506-.075 1.01-.16 1.015-.16.202-.034.372-.168.452-.356.08-.188.06-.404-.056-.574l-.735-1.079 1.053-.753c.07-.05.13-.115.172-.19L6.552 8.92l.659-.706c.673-.721.865-1.776.489-2.688-.222-.537-.609-.985-1.093-1.287.524-.412 1.083-.793 1.678-1.136 2.18-1.259 4.56-1.869 6.914-1.892l-1.072 1.344-3.973 1.393c-.16.056-.29.179-.356.337l-1.11 2.69c-.078.19-.053.409.067.577l1.62 2.27c-.232.212-.457.52-.727.903-.119.168-.23.327-.307.415l-.201.228c-.349.392-.71.798-.965 1.34-.563 1.191-.45 2.576.296 3.614.722 1.004 1.91 1.514 3.18 1.364.207-.024.4-.072.586-.118.514-.127.677-.14.842.015.08.075.088.09.086.344 0 .162-.002.364.054.595.09.368.32.623.507.828.092.102.188.207.217.277.188.449.106.697-.072 1.241l-.047.143c-.271.84.107 1.673.44 2.408.109.238.211.463.278.662.54 1.601.944 1.968 1.269 2.115.17.078.345.112.523.112.865 0 1.768-.804 2.182-1.313.26-.32.325-.64.372-.873.023-.117.041-.208.076-.268.054-.092.117-.163.197-.253.16-.182.361-.407.49-.815.1-.31.17-.387.408-.64l.132-.141c.8-.87.594-1.534.376-2.238-.184-.591.137-.97.913-1.692.336-.313.684-.637.953-1.026.117-.17.475-.688.253-1.202-.217-.503-.768-.588-1.211-.656-.175-.027-.44-.067-.524-.122-.371-.243-.598-.75-.818-1.24l-.13-.287c-.079-.166-.157-.368-.239-.581-.218-.565-.466-1.206-.887-1.652-.378-.401-1.092-.594-1.721-.765-.212-.057-.412-.111-.544-.16-.11-.04-.23-.048-.345-.021-.306.072-.497.15-.64.264-.037.03-.148.13-.213.288-.22-.106-.521-.307-.707-.43l-.012-.009c.063-.25.006-.451-.053-.577-.336-.709-1.448-.653-1.668-.635-.124.01-.282.016-.449.022-.262.01-.552.02-.838.052l.014-.041c.218-.606.797-1.014 1.441-1.014h.341c.331 0 .6-.268.6-.6 0-.33-.269-.6-.6-.6h-.341c-.956 0-1.832.504-2.322 1.296l-.895-1.254.88-2.134 3.882-1.361c.107-.037.2-.104.27-.192l1.727-2.165c4.41.42 8.56 2.892 10.939 7.012.633 1.097 1.102 2.252 1.413 3.434l-.254.227c-.332.296-.526.72-.534 1.165v.015l-.415-1.14c-.061-.17-.152-.326-.27-.463l-.739-.866c-.286-.335-.704-.527-1.145-.527h-.905c-.32 0-.614.176-.766.459-.151.283-.135.625.043.892l.092.137c-.585.503-1.26.905-1.98 1.177l-1.241-2.376v-.53c0-.164-.067-.32-.186-.434L19.62 8.389c-.062-.059-.136-.104-.216-.132L18.4 7.904c-.313-.11-.655.054-.765.367-.11.312.054.655.367.765l.883.31.838.8v.42c0 .097.024.192.068.278l1.553 2.974c.14.267.456.39.74.285l.451-.167c1.05-.387 2.024-1.01 2.816-1.801.202-.203.233-.52.075-.757l-.032-.048h.286c.09 0 .175.039.233.107l.739.865c.024.028.042.06.055.094l.815 2.243c.07.193.234.337.434.38.043.01.087.015.13.015.158 0 .31-.062.424-.176l.389-.388c.246-.246.415-.557.496-.902.6 4.812-1.287 9.79-5.275 12.92-.26.205-.306.583-.102.843.205.261.582.306.843.102 2.88-2.26 4.857-5.493 5.57-9.102.719-3.645.091-7.426-1.768-10.646zm-25.825 9.28l2.474 1.88c.073.056.158.095.248.112l1.491.291c.19.038.35.15.447.318.098.167.119.36.059.544-.125.38-.125.78-.002 1.159l.19.585c.114.35-.078.726-.428.84l-.596.194c-.208.067-.363.243-.404.457l-.48 2.505c-1.055-.965-1.981-2.107-2.733-3.409-.917-1.589-1.49-3.283-1.743-4.996l1.477-.48zm3.497-9.57l-.706.757c-.032.033-.06.07-.082.11l-1.603 2.799-1.424 1.019c-.266.19-.33.556-.147.826l.533.781c-.308.046-.583.083-.766.103l-.11-.103c-.143-.133-.341-.31-.637-.568.488-3.016 1.94-5.857 4.226-8.026.438.138.797.465.972.89.198.48.097 1.034-.256 1.412zm4.891 3.28c.268-.152.89-.174 1.343-.19.181-.006.353-.012.506-.025.081-.007.171-.006.256.001-.038.097-.05.204-.034.31.03.186.144.348.31.437.113.06.27.164.435.275.469.312 1 .667 1.5.698.454.03.707-.229.815-.339l.025-.026c.061-.05.118-.116.16-.196l.3.083c.356.096 1.017.275 1.163.43.26.275.462.798.64 1.26.09.234.176.454.272.658l.122.27c.277.617.59 1.317 1.256 1.752.302.198.672.254.999.304l.13.021c-.193.27-.47.527-.76.799-.743.692-1.668 1.552-1.242 2.926.2.648.21.718-.113 1.07l-.123.132c-.277.295-.496.528-.677 1.098-.052.165-.12.242-.244.381-.099.111-.222.25-.336.445-.136.232-.18.457-.217.637-.035.177-.056.266-.125.352-.159.194-.454.477-.758.67-.282.178-.446.203-.502.2-.064-.07-.296-.37-.647-1.41-.086-.256-.206-.52-.322-.775-.255-.563-.52-1.145-.391-1.543l.045-.138c.205-.625.399-1.216.04-2.077-.11-.262-.283-.453-.437-.622-.1-.11-.212-.233-.229-.305-.021-.087-.02-.187-.02-.303.002-.314.005-.787-.465-1.228-.664-.622-1.439-.43-1.951-.304-.157.04-.306.076-.438.092-.843.098-1.595-.22-2.065-.873-.492-.684-.563-1.604-.186-2.402.182-.386.458-.696.777-1.055.07-.078.14-.157.21-.238.117-.135.246-.318.382-.51.162-.232.465-.661.596-.743z" transform="translate(-665 -243) translate(292 226) translate(353 17) translate(20)"/>
                        <path d="M24.601 20.657l-.288-1.088c-.063-.238-.265-.413-.509-.442-.244-.029-.481.093-.599.31-.065.12-.125.25-.182.373-.096.21-.196.425-.3.544-.058.067-.207.14-.352.21-.345.166-.818.394-.999.97-.112.358-.07.64-.04.847.027.179.033.24-.015.353l-.006.014c-.19.448-.546 1.283-.048 1.992.356.506.73.636 1.02.636.057 0 .11-.005.16-.013.612-.1 1.072-.736 1.448-2.003l.706-2.379c.031-.105.033-.218.004-.324zm-1.86 2.361c-.192.646-.362.948-.46 1.082l-.036-.05c-.115-.163.057-.565.17-.832l.006-.014c.183-.429.134-.758.099-1-.023-.153-.032-.22-.003-.31.024-.075.164-.148.376-.25.094-.046.197-.095.302-.156l-.454 1.53zM16.202 7.132l-.04-.015c-.313-.109-.656.055-.765.368-.11.313.054.655.367.765l.04.014c.066.023.133.034.2.034.247 0 .479-.155.565-.402.11-.312-.055-.655-.367-.764z" transform="translate(-665 -243) translate(292 226) translate(353 17) translate(20)"/>
                    </g>
                </g>
            </g>
        </g>
    </g>
</svg>
