<svg xmlns="http://www.w3.org/2000/svg" width="29" height="29" viewBox="0 0 29 29">
    <g fill="none" fill-rule="evenodd">
        <g fill="#FFF" fill-rule="nonzero">
            <g>
                <g>
                    <g>
                        <path d="M22.101 28.672H2.987C1.34 28.672 0 27.332 0 25.685V8.96c0-1.647 1.34-2.987 2.987-2.987h8.362c.33 0 .598.268.598.598 0 .33-.268.597-.598.597H2.987c-.988 0-1.792.804-1.792 1.792v16.725c0 .988.804 1.792 1.792 1.792h18.867l5.623-5.623V8.96c0-.988-.804-1.792-1.792-1.792h-8.362c-.33 0-.598-.268-.598-.597 0-.33.268-.598.598-.598h8.362c1.647 0 2.987 1.34 2.987 2.987v13.141c0 .16-.063.31-.174.423l-5.974 5.974c-.112.11-.264.174-.423.174z" transform="translate(-969 -244) translate(292 226) translate(663 18) translate(14)"/>
                        <path d="M22.101 28.672c-.33 0-.597-.268-.597-.597V22.1c0-.33.268-.597.597-.597h5.974c.33 0 .597.268.597.597 0 .33-.268.598-.597.598h-5.376v5.376c0 .33-.268.597-.598.597zM14.336 10.752c-.33 0-.597-.268-.597-.597V4.18c0-.33.267-.597.597-.597.33 0 .597.268.597.597v5.974c0 .33-.267.597-.597.597z" transform="translate(-969 -244) translate(292 226) translate(663 18) translate(14)"/>
                        <path d="M14.336 4.779c-1.318 0-2.39-1.072-2.39-2.39 0-1.317 1.072-2.389 2.39-2.389s2.39 1.072 2.39 2.39c0 1.317-1.072 2.389-2.39 2.389zm0-3.584c-.658 0-1.195.535-1.195 1.194 0 .66.537 1.195 1.195 1.195s1.195-.535 1.195-1.195-.537-1.194-1.195-1.194zM23.296 14.336H5.376c-.33 0-.597-.268-.597-.597 0-.33.267-.598.597-.598h17.92c.33 0 .597.268.597.598 0 .33-.267.597-.597.597zM23.296 19.115H5.376c-.33 0-.597-.268-.597-.598 0-.33.267-.597.597-.597h17.92c.33 0 .597.268.597.597 0 .33-.267.598-.597.598zM18.517 23.893H5.376c-.33 0-.597-.267-.597-.597 0-.33.267-.597.597-.597h13.141c.33 0 .598.267.598.597 0 .33-.268.597-.598.597z" transform="translate(-969 -244) translate(292 226) translate(663 18) translate(14)"/>
                    </g>
                </g>
            </g>
        </g>
    </g>
</svg>
