<svg xmlns="http://www.w3.org/2000/svg" width="31" height="31" viewBox="0 0 31 31">
    <g fill="none" fill-rule="evenodd">
        <g fill="#FFF" fill-rule="nonzero">
            <g>
                <g>
                    <g>
                        <path d="M17.753 20.126c-.75-.523-1.55-.949-2.389-1.274 1.115-1.013 1.854-2.433 1.983-4.021 1.69-1.647 3.906-2.55 6.281-2.55 1.854 0 3.635.558 5.15 1.614.542.379 1.288.246 1.667-.297.378-.542.245-1.289-.298-1.667-.75-.523-1.55-.949-2.388-1.275 1.23-1.118 2.003-2.73 2.003-4.519 0-3.367-2.74-6.107-6.108-6.107-3.367 0-6.107 2.74-6.107 6.107 0 1.782.767 3.388 1.989 4.506-.167.064-.334.132-.498.204-.75.33-1.454.736-2.11 1.212-.903-2.245-3.103-3.834-5.668-3.834-3.367 0-6.107 2.74-6.107 6.108 0 1.776.763 3.378 1.978 4.495-3.249 1.217-5.883 3.831-6.955 7.165-.355 1.105-.167 2.278.517 3.216.684.939 1.742 1.477 2.903 1.477h10.419c.661 0 1.197-.536 1.197-1.197 0-.662-.536-1.198-1.197-1.198H3.596c-.387 0-.74-.18-.968-.492-.228-.313-.29-.704-.172-1.073 1.184-3.68 4.793-6.25 8.778-6.25 1.854 0 3.635.559 5.15 1.615.542.378 1.288.245 1.666-.297.379-.543.246-1.29-.297-1.668zm5.901-17.701c2.047 0 3.713 1.665 3.713 3.712S25.7 9.85 23.654 9.85c-2.046 0-3.712-1.666-3.712-3.713s1.666-3.712 3.712-3.712zM11.26 10.62c2.047 0 3.713 1.666 3.713 3.713s-1.666 3.712-3.713 3.712-3.712-1.665-3.712-3.712 1.665-3.713 3.712-3.713zm19.4 14.378c0 .661-.536 1.197-1.198 1.197H26.17v3.294c0 .661-.536 1.197-1.197 1.197-.662 0-1.198-.536-1.198-1.197v-3.294h-3.293c-.661 0-1.197-.536-1.197-1.197S19.82 23.8 20.48 23.8h3.293v-3.293c0-.661.536-1.197 1.198-1.197.661 0 1.197.536 1.197 1.197V23.8h3.293c.662 0 1.198.537 1.198 1.198z" transform="translate(-1092 -244) translate(292 226) translate(774 18) translate(26)"/>
                    </g>
                </g>
            </g>
        </g>
    </g>
</svg>
