<svg xmlns="http://www.w3.org/2000/svg" width="35" height="31" viewBox="0 0 35 31">
    <g fill="none" fill-rule="evenodd">
        <g fill="#FFF" fill-rule="nonzero">
            <g>
                <g>
                    <g>
                        <path d="M24.148 13.37c-.474-.472-1.183-.618-1.806-.372-.137-.5-.496-.908-.973-1.108-.478-.2-1.02-.168-1.472.086-.066-.103-.143-.199-.23-.285-.457-.457-1.137-.61-1.747-.395V10.08h3.92c.31 0 .56-.25.56-.56V.56c0-.31-.25-.56-.56-.56h-8.96c-.31 0-.56.25-.56.56v8.96c0 .31.25.56.56.56h1.68v4.808l-.015-.027c-.461-.805-1.488-1.084-2.293-.622-.805.461-1.084 1.488-.622 2.293l3.006 5.613c.028.05.063.098.105.138l.947.914-.008 7.042c0 .31.25.561.56.561h6.72c.31 0 .56-.25.56-.56v-7.048l.956-.956c.105-.105.164-.247.164-.396v-7.28c0-.446-.176-.874-.492-1.19zM13.44 8.96V1.12h7.84v7.84h-3.36V8.4c0-.928-.752-1.68-1.68-1.68-.928 0-1.68.752-1.68 1.68v.56h-1.12zm10.08 12.648l-.956.956c-.105.105-.164.247-.164.396v6.72h-5.6l.008-6.72c0-.151-.061-.297-.17-.402l-1.056-1.02-2.969-5.542-.008-.015c-.154-.269-.062-.611.206-.767.084-.049.18-.075.278-.074.196 0 .377.102.48.268l1.05 2.098c.117.232.377.354.63.294.252-.06.43-.285.431-.544V8.4c0-.31.25-.56.56-.56.31 0 .56.25.56.56v7.28c0 .31.25.56.56.56.31 0 .56-.25.56-.56v-2.8c0-.31.25-.56.56-.56.149 0 .291.059.396.164.105.105.164.247.164.396v2.8c0 .31.25.56.56.56.31 0 .56-.25.56-.56v-2.24c0-.31.25-.56.56-.56.149 0 .291.059.396.164.105.105.164.247.164.396v2.24c0 .31.25.56.56.56.31 0 .56-.25.56-.56v-1.12c0-.31.25-.56.56-.56.149 0 .291.059.396.164.105.105.164.247.164.396v7.048zM9.52 0H.56C.25 0 0 .25 0 .56v8.96c0 .31.25.56.56.56h8.96c.31 0 .56-.25.56-.56V.56c0-.31-.25-.56-.56-.56zm-.56 8.96H1.12V1.12h7.84v7.84zM34.16 0H25.2c-.31 0-.56.25-.56.56v8.96c0 .31.25.56.56.56h8.96c.31 0 .56-.25.56-.56V.56c0-.31-.25-.56-.56-.56zm-.56 8.96h-7.84V1.12h7.84v7.84z" transform="translate(-775 -246) translate(292 226) translate(481 20) translate(2)"/>
                    </g>
                </g>
            </g>
        </g>
    </g>
</svg>
