<svg xmlns="http://www.w3.org/2000/svg" width="24" height="29" viewBox="0 0 24 29">
    <g fill="none" fill-rule="evenodd">
        <g fill="#FFF" fill-rule="nonzero">
            <g>
                <g>
                    <g>
                        <path d="M7.2 20.64h-.96c-.265 0-.48.215-.48.48s.215.48.48.48h.96c.265 0 .48-.215.48-.48s-.215-.48-.48-.48zM20.64 20.64H9.12c-.265 0-.48.215-.48.48s.215.48.48.48h11.52c.265 0 .48-.215.48-.48s-.215-.48-.48-.48zM7.2 17.76h-.96c-.265 0-.48.215-.48.48s.215.48.48.48h.96c.265 0 .48-.215.48-.48s-.215-.48-.48-.48zM20.64 17.76H9.12c-.265 0-.48.215-.48.48s.215.48.48.48h11.52c.265 0 .48-.215.48-.48s-.215-.48-.48-.48zM7.2 14.88h-.96c-.265 0-.48.215-.48.48s.215.48.48.48h.96c.265 0 .48-.215.48-.48s-.215-.48-.48-.48zM20.64 14.88H9.12c-.265 0-.48.215-.48.48s.215.48.48.48h11.52c.265 0 .48-.215.48-.48s-.215-.48-.48-.48zM7.2 12h-.96c-.265 0-.48.215-.48.48s.215.48.48.48h.96c.265 0 .48-.215.48-.48S7.465 12 7.2 12zM20.64 12H9.12c-.265 0-.48.215-.48.48s.215.48.48.48h11.52c.265 0 .48-.215.48-.48s-.215-.48-.48-.48zM7.2 9.12h-.96c-.265 0-.48.215-.48.48s.215.48.48.48h.96c.265 0 .48-.215.48-.48s-.215-.48-.48-.48zM20.64 9.12H9.12c-.265 0-.48.215-.48.48s.215.48.48.48h11.52c.265 0 .48-.215.48-.48s-.215-.48-.48-.48z" transform="translate(-872 -245) translate(292 226) translate(574 19) translate(6)"/>
                        <path d="M23.994 7.17c-.003-.042-.01-.084-.025-.124-.005-.015-.009-.03-.016-.045-.023-.052-.055-.1-.096-.14L17.137.14c-.04-.04-.088-.073-.14-.096-.015-.007-.03-.01-.045-.016-.04-.014-.082-.022-.124-.025C16.82.005 16.81 0 16.8 0H3.36c-.265 0-.48.215-.48.48v1.44H.48c-.265 0-.48.215-.48.48v25.92c0 .265.215.48.48.48h20.16c.265 0 .48-.215.48-.48v-2.4h2.4c.265 0 .48-.215.48-.48V7.2c0-.01-.005-.02-.006-.03zM17.28 1.639l5.081 5.081H17.28V1.639zm2.88 26.201H.96V2.88h1.92v22.56c0 .265.215.48.48.48h16.8v1.92zm2.88-2.88H3.84v-24h12.48V7.2c0 .265.215.48.48.48h6.24v17.28z" transform="translate(-872 -245) translate(292 226) translate(574 19) translate(6)"/>
                        <path d="M9.12 4.32H6.24c-.265 0-.48.215-.48.48v2.88c0 .265.215.48.48.48h2.88c.265 0 .48-.215.48-.48V4.8c0-.265-.215-.48-.48-.48zM8.64 7.2H6.72V5.28h1.92V7.2z" transform="translate(-872 -245) translate(292 226) translate(574 19) translate(6)"/>
                    </g>
                </g>
            </g>
        </g>
    </g>
</svg>
